<?xml version="1.0" encoding="UTF-8" standalone="no"?>
<svg
   version="1.1"
   id="Layer_1"
   x="0px"
   y="0px"
   width="100%"
   viewBox="0 0 550 550"
   enable-background="new 0 0 550 550"
   xml:space="preserve"
   sodipodi:docname="dacia-spring-frauen-t-shirt-mit-gerollten-aermeln.svg"
   inkscape:version="1.3.2 (091e20e, 2023-11-25, custom)"
   xmlns:inkscape="http://www.inkscape.org/namespaces/inkscape"
   xmlns:sodipodi="http://sodipodi.sourceforge.net/DTD/sodipodi-0.dtd"
   xmlns="http://www.w3.org/2000/svg"
   xmlns:svg="http://www.w3.org/2000/svg"><defs
   id="defs72" /><sodipodi:namedview
   id="namedview72"
   pagecolor="#ffffff"
   bordercolor="#000000"
   borderopacity="0.25"
   inkscape:showpageshadow="2"
   inkscape:pageopacity="0.0"
   inkscape:pagecheckerboard="0"
   inkscape:deskcolor="#d1d1d1"
   inkscape:zoom="3.3072727"
   inkscape:cx="274.84882"
   inkscape:cy="288.90874"
   inkscape:window-width="3840"
   inkscape:window-height="2054"
   inkscape:window-x="-11"
   inkscape:window-y="-11"
   inkscape:window-maximized="1"
   inkscape:current-layer="Layer_1" />

<path
   fill="#010201"
   opacity="1.000000"
   stroke="none"
   d=" M6.172824,317.007538   C6.137117,312.638275 6.101410,308.269012 6.270066,303.260254   C6.374843,302.082672 6.275258,301.544647 6.175674,301.006592   C6.125368,299.283020 6.075060,297.559418 6.196218,295.305847   C6.492397,294.490997 6.444516,294.235107 6.224040,294.008240   C6.805562,289.272705 7.387086,284.537140 8.215194,279.107849   C8.514147,277.993469 8.566516,277.572815 8.618886,277.152191   C8.737249,275.988739 8.855612,274.825317 9.221355,273.039490   C9.526052,271.997864 9.583369,271.578613 9.640684,271.159332   C10.426226,266.702942 11.211767,262.246521 12.529674,257.396484   C14.420801,257.019775 15.779564,257.036743 17.059570,257.391052   C16.613014,258.821564 16.245216,259.914703 15.695034,261.319275   C15.442068,262.342499 15.371487,263.054230 15.349670,264.169983   C14.864189,269.051422 14.329944,273.528809 13.697163,278.107788   C13.458507,278.486542 13.491697,278.744476 13.734722,279.394409   C13.114769,285.540253 12.458294,291.274780 11.608485,297.363220   C11.320694,299.663910 11.226236,301.610779 11.199222,303.901703   C11.114593,305.166290 10.962521,306.086823 10.712343,307.109894   C10.478354,307.493256 10.517089,307.751007 10.862894,308.287476   C12.155867,307.325256 13.316388,306.061310 14.973845,304.878723   C15.802114,305.014038 16.133448,305.067963 16.398258,305.487793   C15.602561,307.401550 14.873385,308.949371 14.004328,310.565857   C13.689856,310.762604 13.572486,310.930634 13.160214,311.332611   C12.014612,312.243896 11.221135,312.961212 10.427657,313.678497   C10.701623,314.005890 10.975588,314.333313 11.249554,314.660706   C12.230291,313.838654 13.211029,313.016571 14.439409,312.129578   C14.877131,311.794067 15.067212,311.523468 15.561020,311.105591   C16.498184,310.198730 17.284672,309.520844 17.740700,308.666595   C21.200830,302.184662 26.652739,300.277313 33.593079,301.541016   C35.375862,301.865662 37.200790,301.958801 39.178406,302.302124   C39.895210,302.383209 40.439972,302.320465 41.411991,302.214111   C61.919899,303.824158 81.975349,306.153992 102.089691,306.903564   C116.495171,307.440460 128.089508,312.206085 139.016235,321.570160   C159.489883,339.115967 150.794434,335.171844 178.196152,336.507172   C189.479324,337.057007 200.833099,336.250793 212.151230,335.934357   C215.612518,335.837616 218.384583,335.059937 219.236511,330.617798   C223.498856,308.392914 232.817398,287.933197 242.462967,267.708282   C247.066330,258.055878 256.063385,253.114594 266.582520,252.058533   C277.500854,250.962418 288.497101,250.359222 299.470306,250.166245   C312.144928,249.943329 322.223938,256.652435 326.390503,268.586670   C332.963776,287.414429 337.013062,306.716156 334.296234,326.884827   C333.416260,333.417572 332.805725,339.986633 332.028809,346.924225   C357.059662,343.749390 381.611969,340.618927 406.168884,337.525269   C428.787628,334.675751 451.405792,331.820160 474.037048,329.073059   C479.173615,328.449524 481.932159,325.814362 483.109192,320.780945   C486.929504,304.443787 490.727478,288.093323 495.037048,271.881714   C497.560394,262.389526 503.763062,256.333984 514.084229,255.486542   C516.903442,255.255066 519.719727,254.954742 522.543762,254.823532   C529.567566,254.497192 536.759033,253.807495 540.805725,262.033600   C540.944336,260.085266 540.743896,258.652222 540.411743,257.250397   C538.917358,250.943512 536.838257,244.715683 536.018555,238.324844   C535.171753,231.722229 532.531128,226.433578 528.166626,221.601837   C526.607056,219.875397 525.162537,217.318329 525.126831,215.116699   C525.076416,212.005066 524.041687,210.136627 521.524780,208.718735   C512.672363,203.731552 508.049438,195.585205 503.536835,186.777618   C498.590363,177.123260 491.822845,168.401917 485.869385,158.899429   C485.925964,158.026077 485.962158,157.527283 485.998322,157.028488   C495.242432,165.056076 501.843872,175.105896 506.899689,186.039139   C510.814667,194.505356 516.137817,201.199600 524.131531,206.078537   C532.982178,211.480499 537.841248,218.973251 538.706421,230.046249   C539.632019,241.891418 543.968018,253.448395 545.180115,265.298462   C546.664978,279.815857 548.441711,294.957733 542.737915,308.753326   C539.994507,315.388519 540.658752,321.107300 540.863892,327.438660   C541.402588,344.065460 539.412231,360.061615 527.791077,373.727814   C532.437500,374.487030 532.444153,378.043396 530.584412,380.349121   C527.353271,384.355011 523.681091,388.983917 519.168396,390.790985   C506.413483,395.898590 493.339935,400.493622 480.036072,403.901154   C394.463135,425.819092 307.282837,431.207458 219.370010,428.218445   C165.563995,426.388977 112.080940,420.652405 58.674309,414.177124   C49.772564,413.097870 40.880745,411.736359 32.102768,409.929810   C28.293985,409.145935 24.524035,407.322784 21.190926,405.243225   C12.409928,399.764648 10.990093,391.470306 17.145065,383.085480   C21.948782,376.541412 28.623121,372.592743 36.186714,370.022522   C38.039272,369.392975 39.949421,368.932922 41.621025,368.455505   C37.380840,362.957733 32.638611,357.858917 29.191969,351.998138   C26.574152,347.546753 24.578621,343.863495 18.669313,343.183716   C13.454606,342.583893 10.406225,338.381622 9.076030,333.415344   C7.874371,328.928986 7.130294,324.320099 6.361135,319.182770   C6.416170,318.069397 6.294497,317.538452 6.172824,317.007538  M297.530579,295.911499   C284.006622,288.667084 270.204620,288.003418 256.387817,294.763489   C253.840805,296.009644 251.195114,298.559967 250.156113,301.137634   C243.513870,317.616425 237.353973,334.289001 230.910690,350.849304   C229.903687,353.437378 228.109955,355.710083 226.962219,358.255859   C226.158035,360.039673 224.879135,362.413666 225.453735,363.881470   C228.640427,372.021820 231.196304,380.741028 236.051620,387.836334   C253.253937,412.974915 285.882416,416.678741 307.739777,396.705109   C337.673553,369.351105 332.739136,317.376984 297.530579,295.911499  M500.539032,304.968445   C495.893097,317.108337 493.474670,329.498077 495.974274,342.528748   C497.771271,351.896820 499.898499,361.144775 506.533783,368.460632   C512.564453,375.109894 519.544983,375.019958 525.273682,368.119720   C527.674072,365.228516 529.652161,361.827698 531.138794,358.365112   C536.814941,345.144318 537.900208,331.174530 535.226807,317.287567   C533.726501,309.493896 530.783752,301.564575 526.690186,294.783447   C521.012634,285.378479 511.828247,285.521637 505.129944,294.324738   C503.012329,297.107758 502.209473,300.891174 500.539032,304.968445  M259.882812,283.738373   C259.141998,284.655090 258.401215,285.571777 256.520813,287.898682   C285.537140,284.486389 308.884827,291.118927 324.110626,316.773651   C323.191620,307.236084 321.933960,298.091919 319.795868,289.158478   C318.524139,283.844940 314.849426,279.368896 309.542603,277.641571   C292.422974,272.069336 275.674133,271.476837 259.882812,283.738373  M512.586853,278.010529   C510.996002,280.151489 509.405182,282.292480 507.094849,285.401825   C528.357971,282.576569 533.526184,297.088409 539.135071,311.583130   C540.053650,309.578552 541.012451,307.572784 540.896912,305.630951   C540.504456,299.036621 540.328613,292.339691 538.978455,285.911194   C536.342529,273.361359 531.247620,270.743256 518.955078,274.767029   C516.937988,275.427307 515.090210,276.604675 512.586853,278.010529  z"
   id="path2" />
<path
   fill="#000100"
   opacity="1.000000"
   stroke="none"
   d=" M101.996826,196.190033   C106.295288,195.768875 110.585197,195.184509 114.893898,194.958771   C125.566132,194.399658 135.396744,191.532227 144.383392,185.549744   C157.100082,177.084167 170.044586,168.961700 182.823349,160.588226   C197.636002,150.882019 213.287827,143.064209 231.247421,138.777161   C232.275040,138.560593 232.634109,138.384521 232.993195,138.208435   C239.648972,135.775314 246.304764,133.342194 253.633118,130.890686   C254.868744,130.620453 255.431793,130.368591 255.994843,130.116730   C262.705048,130.084030 269.415222,130.051346 276.854553,130.222015   C277.994476,130.426514 278.405243,130.427673 278.816010,130.428818   C280.002899,130.373581 281.189819,130.318344 282.675049,130.607361   C282.992828,131.335815 283.012329,131.720001 282.729065,132.273392   C281.281982,132.552551 280.137726,132.662521 278.877625,132.688141   C278.460236,132.516434 278.207245,132.595383 277.589233,132.935913   C271.368408,133.772369 265.561157,134.513580 259.445282,135.270203   C258.761261,135.444336 258.385834,135.603073 257.615173,135.868103   C254.084091,136.426071 250.948227,136.877716 247.495087,137.335251   C246.788528,137.494873 246.399246,137.648590 245.693390,137.915070   C246.589188,138.440186 247.801544,138.852570 249.197388,139.393524   C249.918549,139.403748 250.456223,139.285400 251.417786,139.082397   C255.565933,138.753265 259.290222,138.508789 263.196564,138.395233   C263.917236,138.410400 264.455811,138.294647 265.443237,138.098053   C297.002747,135.620132 328.120758,134.651764 358.569244,136.890427   C344.948303,152.570724 331.560547,168.400726 317.600952,183.709290   C314.716766,186.872177 309.704071,188.094101 305.375092,190.247101   C304.721130,190.456436 304.364502,190.629288 303.724854,190.912277   C302.842010,191.075455 302.242157,191.128479 301.350342,191.215149   C300.709198,191.418442 300.360016,191.588104 299.587860,191.873230   C294.686798,192.224548 290.207886,192.678757 285.730713,192.662247   C243.844055,192.507858 201.957870,192.223389 160.071167,192.098099   C150.393463,192.069153 140.513367,190.611816 130.980804,195.115814   C130.116776,195.361435 129.561691,195.608368 128.683167,195.979279   C127.236778,196.319611 126.113815,196.535950 124.873215,196.670532   C124.451874,196.509445 124.200760,196.594818 123.621933,196.946426   C121.154968,197.269241 119.068291,197.490555 116.798019,197.584198   C116.078079,197.581436 115.541710,197.706329 114.578911,197.912750   C110.765266,198.245255 107.378052,198.496231 103.875580,198.662598   C103.459763,198.490646 103.207283,198.569427 102.593384,198.903610   C97.353500,199.729889 92.523094,200.466888 87.391541,201.237610   C86.729691,201.444855 86.368988,201.618347 85.630112,201.912476   C75.004425,205.116196 64.756912,208.199280 54.252979,211.066711   C53.667812,210.278244 53.339073,209.705429 53.010330,209.132614   C58.967014,207.048706 64.923698,204.964798 71.578186,202.872543   C72.849342,202.609711 73.422684,202.355209 73.996033,202.100723   C74.246216,201.893951 74.532600,201.772598 75.389008,201.735107   C76.280014,201.551163 76.637199,201.368774 76.994385,201.186386   C77.544090,201.027695 78.093796,200.869003 79.247696,200.694824   C80.233070,200.505920 80.614250,200.332504 80.995422,200.159058   C81.544441,200.001083 82.093468,199.843109 83.245865,199.683380   C84.231392,199.511627 84.613548,199.341660 84.995705,199.171692   C85.565895,199.027847 86.136078,198.883987 87.304153,198.741608   C88.265610,198.572250 88.629189,198.401428 88.992767,198.230591   C92.736984,197.552673 96.481201,196.874756 100.739990,196.318863   C101.553101,196.520554 101.800529,196.436935 101.996826,196.190033  z"
   id="path3" />
<path
   fill="#020302"
   opacity="1.000000"
   stroke="none"
   d=" M17.138327,257.053680   C15.779564,257.036743 14.420801,257.019775 12.654627,257.002869   C12.470286,255.880814 12.693358,254.758774 13.138060,253.213898   C13.506885,252.519226 13.481997,252.261108 13.285030,252.016708   C15.455832,248.439407 17.651699,244.876968 19.784084,241.276917   C20.549110,239.985352 21.202635,238.622345 21.833197,237.257812   C22.790773,235.185608 23.683920,233.083633 25.160797,231.783722   C25.359621,234.689972 24.195679,237.114929 24.855875,238.842957   C25.620316,240.843842 27.926401,242.309433 29.748137,243.778015   C29.953094,243.943253 31.357035,242.621185 32.379131,241.700867   C32.650993,240.750839 32.748707,240.088760 32.798805,239.076599   C35.724571,235.495193 38.697956,232.263901 41.634834,229.072266   C36.647705,225.909851 31.710482,225.203522 27.392281,230.865570   C26.923016,231.480850 25.790070,231.589951 24.964970,231.933853   C25.298805,230.689194 25.239611,229.035095 26.035160,228.271423   C29.313059,225.124908 32.850418,222.248672 36.906937,219.200500   C38.049217,219.503860 38.576954,219.879791 38.949795,220.600967   C37.134476,222.769012 37.416428,224.069672 39.857800,224.705048   C41.898697,225.236191 43.958393,225.695114 46.314980,226.362457   C47.315887,226.618774 48.011574,226.698685 49.082191,226.715149   C50.973442,226.829697 52.489761,227.007675 54.108757,227.282837   C54.211430,227.380020 54.613327,227.456238 54.613327,227.456238   C54.613327,227.456238 54.985081,227.275238 55.413239,227.241714   C61.563549,227.529648 67.285706,227.851105 73.368271,228.365936   C78.816048,228.435425 83.903435,228.311539 89.455505,228.118210   C110.787407,227.622864 131.654160,227.169891 152.522690,226.822525   C154.191818,226.794739 155.873047,227.495621 157.740005,227.901291   C158.627365,227.611389 159.323395,227.278091 160.305267,226.730804   C161.052536,226.559265 161.513947,226.601746 162.064362,226.851135   C162.776611,226.855728 163.399826,226.653397 164.428177,226.341736   C166.228104,226.238632 167.622925,226.244873 169.246155,226.403046   C170.313934,226.424805 171.153290,226.294632 172.444702,226.090393   C177.591324,225.817215 182.285873,225.618134 187.087219,225.680328   C188.133331,225.704681 189.072647,225.467712 190.458405,225.139832   C192.069656,225.006165 193.235794,224.985733 194.399124,224.917221   C206.198242,224.222260 217.989944,223.331329 229.798492,222.894119   C236.189072,222.657516 238.543732,226.719727 235.694489,232.427292   C233.913910,235.994110 231.793411,239.389709 229.942963,242.923676   C228.392776,245.884155 226.153992,246.919067 222.746368,247.130447   C197.494431,248.696899 172.267685,250.677521 147.011917,252.170807   C136.756744,252.777161 128.322205,256.221252 121.993103,264.511871   C120.288391,266.744934 118.375061,269.088654 116.026634,270.495270   C112.738503,272.464691 108.961006,274.857269 105.378937,274.880066   C90.253883,274.976318 75.123657,274.260864 59.890663,273.745514   C59.502392,273.517700 59.243622,273.559814 58.597382,273.817474   C53.455414,272.884857 48.725765,271.909912 43.772820,270.755676   C43.196384,270.436554 42.843246,270.296692 42.330658,270.143738   C42.171211,270.130585 41.991539,269.865814 41.842487,269.691376   C41.472305,269.297974 41.215504,269.135315 40.599239,268.909058   C39.129253,265.749237 37.983059,262.709290 36.796112,259.373901   C36.584530,258.723663 36.413708,258.368896 36.131203,257.702271   C35.931065,256.517822 35.842606,255.645294 35.713329,254.458603   C35.494633,253.765289 35.316757,253.386108 35.024891,252.670044   C32.093864,249.974075 29.436005,247.383713 26.422579,245.310028   C21.870735,242.177673 20.399290,242.627090 17.869892,247.517776   C16.912289,249.369324 16.392065,251.447067 15.682432,253.394409   C19.619762,255.104996 19.619762,255.104996 17.138327,257.053680  M163.408752,231.413177   C161.941833,231.549942 160.474899,231.686707 158.169266,231.965088   C147.484756,232.142639 143.714920,237.029404 146.926514,246.898956   C147.796265,246.938919 148.768936,247.089035 149.723267,247.012024   C173.782272,245.070465 197.840546,243.119232 221.892685,241.095184   C222.921204,241.008636 224.330261,240.479980 224.809814,239.696732   C226.841736,236.377930 228.589203,232.884995 230.721329,228.935745   C228.172546,228.935745 226.525467,228.867477 224.885437,228.946243   C207.263779,229.792542 189.643250,230.662033 171.870850,231.085281   C171.239777,231.242996 170.608719,231.400711 169.142029,231.770676   C167.421265,231.762115 165.700500,231.753540 163.408752,231.413177  M76.321884,235.925751   C72.861893,236.248184 69.369438,236.389221 65.960938,236.999298   C64.884651,237.191925 63.275352,238.583221 63.205357,239.522476   C62.836708,244.469070 62.563713,249.472305 62.961807,254.398987   C63.096615,256.067322 65.012962,258.311859 66.630959,258.919342   C68.000488,259.433533 70.844490,258.515930 71.776062,257.281311   C76.519211,250.995270 80.852715,244.400146 85.708595,237.364090   C82.114670,236.774506 79.669846,236.373444 76.321884,235.925751  z"
   id="path4" />
<path
   fill="#070C09"
   opacity="1.000000"
   stroke="none"
   d=" M283.031830,132.104218   C283.012329,131.720001 282.992828,131.335815 282.973755,130.663086   C306.711121,129.406143 330.448181,128.440140 354.184753,127.462708   C355.475189,127.409576 356.964050,127.648315 358.019043,127.097321   C369.853668,120.916344 382.306122,122.927971 394.677917,124.243561   C412.938080,126.185318 430.658081,130.608871 447.634766,137.483810   C455.857849,140.813843 463.466095,145.662033 471.444000,150.202744   C471.208099,150.811737 470.880890,151.040848 470.203552,151.196350   C450.541687,143.331146 430.301178,138.946609 410.105682,134.182480   C389.654572,129.358032 368.831177,130.405807 348.244385,129.455780   C326.593719,128.456680 304.776367,131.069611 283.031830,132.104218  z"
   id="path5" />
<path
   fill="#070C09"
   opacity="1.000000"
   stroke="none"
   d=" M39.104691,220.255722   C38.576954,219.879791 38.049217,219.503860 37.204041,219.041199   C42.020618,215.682373 47.154636,212.410263 52.649490,209.135376   C53.339073,209.705429 53.667812,210.278244 53.993435,211.322281   C49.028442,214.614243 44.066566,217.434982 39.104691,220.255722  z"
   id="path6" />
<path
   fill="#111F18"
   opacity="1.000000"
   stroke="none"
   d=" M470.553680,151.269958   C470.880890,151.040848 471.208099,150.811737 471.744690,150.368225   C476.501190,152.259216 481.048279,154.364578 485.796814,156.749207   C485.962158,157.527283 485.925964,158.026077 485.525970,158.797302   C480.292664,156.469803 475.423157,153.869888 470.553680,151.269958  z"
   id="path7" />
<path
   fill="#070C09"
   opacity="1.000000"
   stroke="none"
   d=" M6.109281,317.334808   C6.294497,317.538452 6.416170,318.069397 6.410275,318.781311   C6.203719,318.528870 6.124728,318.095490 6.109281,317.334808  z"
   id="path8" />
<path
   fill="#070C09"
   opacity="1.000000"
   stroke="none"
   d=" M6.103720,301.332916   C6.275258,301.544647 6.374843,302.082672 6.338436,302.798340   C6.145551,302.537079 6.088659,302.098145 6.103720,301.332916  z"
   id="path9" />
<path
   fill="#070C09"
   opacity="1.000000"
   stroke="none"
   d=" M255.672607,130.081818   C255.431793,130.368591 254.868744,130.620453 253.992096,130.871918   C254.235779,130.596664 254.793091,130.321777 255.672607,130.081818  z"
   id="path10" />
<path
   fill="#070C09"
   opacity="1.000000"
   stroke="none"
   d=" M73.669067,202.066711   C73.422684,202.355209 72.849342,202.609711 71.956772,202.862305   C72.205734,202.584503 72.773918,202.308609 73.669067,202.066711  z"
   id="path11" />
<path
   fill="#070C09"
   opacity="1.000000"
   stroke="none"
   d=" M101.747833,196.139465   C101.800529,196.436935 101.553101,196.520554 101.140335,196.358109   C101.183693,196.213196 101.341270,196.151062 101.747833,196.139465  z"
   id="path12" />
<path
   fill="#070C09"
   opacity="1.000000"
   stroke="none"
   d=" M278.541260,130.268784   C278.405243,130.427673 277.994476,130.426514 277.300659,130.301590   C277.433899,130.154800 277.850220,130.131775 278.541260,130.268784  z"
   id="path13" />
<path
   fill="#070C09"
   opacity="1.000000"
   stroke="none"
   d=" M232.675262,138.180038   C232.634109,138.384521 232.275040,138.560593 231.614441,138.773438   C231.661057,138.590683 232.009186,138.371155 232.675262,138.180038  z"
   id="path14" />
<path
   fill="#070C09"
   opacity="1.000000"
   stroke="none"
   d=" M6.144149,294.249298   C6.444516,294.235107 6.492397,294.490997 6.272500,294.880707   C6.139630,294.820465 6.101943,294.655426 6.144149,294.249298  z"
   id="path15" />
<path
   fill="#070C09"
   opacity="1.000000"
   stroke="none"
   d=" M76.675262,201.162598   C76.637199,201.368774 76.280014,201.551163 75.621201,201.776489   C75.665100,201.592545 76.010620,201.365677 76.675262,201.162598  z"
   id="path16" />
<path
   fill="#070C09"
   opacity="1.000000"
   stroke="none"
   d=" M8.410677,277.412170   C8.566516,277.572815 8.514147,277.993469 8.317232,278.697937   C8.182615,278.545258 8.192542,278.108704 8.410677,277.412170  z"
   id="path17" />
<path
   fill="#070C09"
   opacity="1.000000"
   stroke="none"
   d=" M13.181927,252.249847   C13.481997,252.261108 13.506885,252.519226 13.258224,252.888947   C13.130780,252.818878 13.104801,252.650940 13.181927,252.249847  z"
   id="path18" />
<path
   fill="#070C09"
   opacity="1.000000"
   stroke="none"
   d=" M88.674957,198.202286   C88.629189,198.401428 88.265610,198.572250 87.597778,198.772049   C87.648064,198.592010 88.002609,198.382996 88.674957,198.202286  z"
   id="path19" />
<path
   fill="#070C09"
   opacity="1.000000"
   stroke="none"
   d=" M9.428719,271.416138   C9.583369,271.578613 9.526052,271.997864 9.322147,272.699341   C9.189289,272.545319 9.203021,272.109131 9.428719,271.416138  z"
   id="path20" />
<path
   fill="#070C09"
   opacity="1.000000"
   stroke="none"
   d=" M84.665695,199.137436   C84.613548,199.341660 84.231392,199.511627 83.532059,199.705658   C83.588486,199.520859 83.962090,199.312027 84.665695,199.137436  z"
   id="path21" />
<path
   fill="#070C09"
   opacity="1.000000"
   stroke="none"
   d=" M80.664780,200.129272   C80.614250,200.332504 80.233070,200.505920 79.534714,200.706604   C79.589745,200.522415 79.961937,200.310959 80.664780,200.129272  z"
   id="path22" />





<path
   fill="#070C09"
   opacity="1.000000"
   stroke="none"
   d=" M19.209574,299.196960   C18.421314,300.996216 17.633053,302.795502 16.654787,304.858337   C16.133448,305.067963 15.802114,305.014038 14.973846,304.878723   C15.573389,302.703247 16.669865,300.609131 18.262211,298.592773   C18.908577,298.846008 19.059074,299.021484 19.209574,299.196960  z"
   id="path28" />
<path
   fill="#070C09"
   opacity="1.000000"
   stroke="none"
   d=" M11.608484,297.363220   C11.737455,298.956055 11.673093,300.902771 11.370255,303.203552   C11.226236,301.610779 11.320694,299.663910 11.608484,297.363220  z"
   id="path29" />
<path
   fill="#98C6B6"
   opacity="1.000000"
   stroke="none"
   d=" M14.191767,312.194519   C13.211029,313.016571 12.230291,313.838654 11.249554,314.660706   C10.975588,314.333313 10.701623,314.005890 10.427657,313.678497   C11.221135,312.961212 12.014612,312.243896 13.320599,311.602692   C13.952662,311.850677 14.072214,312.022614 14.191767,312.194519  z"
   id="path30" />
<path
   fill="#070C09"
   opacity="1.000000"
   stroke="none"
   d=" M15.695034,261.319275   C15.832295,261.730621 15.787174,262.453430 15.521479,263.471100   C15.371487,263.054230 15.442068,262.342499 15.695034,261.319275  z"
   id="path31" />
<path
   fill="#070C09"
   opacity="1.000000"
   stroke="none"
   d=" M39.178406,302.302124   C39.451511,302.124542 39.896664,302.090759 40.663277,302.157349   C40.439972,302.320465 39.895210,302.383209 39.178406,302.302124  z"
   id="path32" />
<path
   fill="#98C6B6"
   opacity="1.000000"
   stroke="none"
   d=" M14.984541,311.055817   C15.067212,311.523468 14.877131,311.794067 14.439409,312.129578   C14.072214,312.022614 13.952662,311.850677 13.672724,311.408691   C13.572486,310.930634 13.689856,310.762604 14.004328,310.565857   C14.333403,310.617706 14.522596,310.738251 14.984541,311.055817  z"
   id="path33" />
<path
   fill="#070C09"
   opacity="1.000000"
   stroke="none"
   d=" M10.712343,307.109894   C10.841913,307.174042 10.873377,307.340790 10.817642,307.746613   C10.517089,307.751007 10.478354,307.493256 10.712343,307.109894  z"
   id="path34" />
<path
   fill="#070C09"
   opacity="1.000000"
   stroke="none"
   d=" M13.697164,278.107788   C13.827213,278.173828 13.858727,278.341431 13.794220,278.746094   C13.491697,278.744476 13.458507,278.486542 13.697164,278.107788  z"
   id="path35" />
<path
   fill="#070C09"
   opacity="1.000000"
   stroke="none"
   d=" M263.196564,138.395233   C263.454102,138.192978 263.893677,138.121643 264.663849,138.114609   C264.455811,138.294647 263.917236,138.410400 263.196564,138.395233  z"
   id="path36" />
<path
   fill="#070C09"
   opacity="1.000000"
   stroke="none"
   d=" M249.197388,139.393524   C249.453125,139.189682 249.892319,139.114426 250.662720,139.103104   C250.456223,139.285400 249.918549,139.403748 249.197388,139.393524  z"
   id="path37" />
<path
   fill="#070C09"
   opacity="1.000000"
   stroke="none"
   d=" M130.980804,195.115814   C130.739548,195.387787 130.189346,195.658463 129.322876,195.892227   C129.561691,195.608368 130.116776,195.361435 130.980804,195.115814  z"
   id="path38" />
<path
   fill="#070C09"
   opacity="1.000000"
   stroke="none"
   d=" M116.798019,197.584198   C116.543686,197.793198 116.105766,197.874542 115.336594,197.893555   C115.541710,197.706329 116.078079,197.581436 116.798019,197.584198  z"
   id="path39" />
<path
   fill="#070C09"
   opacity="1.000000"
   stroke="none"
   d=" M278.877625,132.688141   C278.831512,132.829727 278.669556,132.886963 278.255188,132.892426   C278.207245,132.595383 278.460236,132.516434 278.877625,132.688141  z"
   id="path40" />
<path
   fill="#070C09"
   opacity="1.000000"
   stroke="none"
   d=" M259.445282,135.270203   C259.385559,135.448685 259.017181,135.642593 258.329651,135.799164   C258.385834,135.603073 258.761261,135.444336 259.445282,135.270203  z"
   id="path41" />
<path
   fill="#070C09"
   opacity="1.000000"
   stroke="none"
   d=" M247.495087,137.335266   C247.428955,137.514740 247.045517,137.700104 246.336029,137.843903   C246.399246,137.648590 246.788528,137.494873 247.495087,137.335266  z"
   id="path42" />
<path
   fill="#070C09"
   opacity="1.000000"
   stroke="none"
   d=" M87.391541,201.237610   C87.342079,201.417877 86.991470,201.631882 86.324570,201.818863   C86.368988,201.618347 86.729691,201.444855 87.391541,201.237610  z"
   id="path43" />
<path
   fill="#070C09"
   opacity="1.000000"
   stroke="none"
   d=" M305.375092,190.247101   C305.327301,190.428391 304.982239,190.646194 304.322510,190.833069   C304.364502,190.629288 304.721130,190.456436 305.375092,190.247101  z"
   id="path44" />
<path
   fill="#070C09"
   opacity="1.000000"
   stroke="none"
   d=" M301.350342,191.215149   C301.303436,191.392990 300.964539,191.604462 300.318237,191.786865   C300.360016,191.588104 300.709198,191.418442 301.350342,191.215149  z"
   id="path45" />
<path
   fill="#070C09"
   opacity="1.000000"
   stroke="none"
   d=" M124.873215,196.670547   C124.830582,196.815781 124.670311,196.879227 124.256134,196.893799   C124.200760,196.594818 124.451874,196.509445 124.873215,196.670547  z"
   id="path46" />
<path
   fill="#070C09"
   opacity="1.000000"
   stroke="none"
   d=" M103.875580,198.662598   C103.829338,198.804871 103.667839,198.862518 103.254608,198.867249   C103.207283,198.569427 103.459763,198.490646 103.875580,198.662598  z"
   id="path47" />



<path
   fill="#070C09"
   opacity="1.000000"
   stroke="none"
   d=" M73.368271,228.365936   C78.028343,228.126663 83.048828,228.080750 88.530060,228.111237   C83.903435,228.311539 78.816048,228.435425 73.368271,228.365936  z"
   id="path51" />
<path
   fill="#070C09"
   opacity="1.000000"
   stroke="none"
   d=" M187.087219,225.680328   C187.737671,225.312439 188.494919,225.205856 189.632065,225.165009   C189.072647,225.467712 188.133331,225.704681 187.087219,225.680328  z"
   id="path52" />
<path
   fill="#070C09"
   opacity="1.000000"
   stroke="none"
   d=" M157.740005,227.901291   C158.192474,227.421524 158.836288,226.985138 159.749756,226.746780   C159.323395,227.278091 158.627365,227.611389 157.740005,227.901291  z"
   id="path53" />
<path
   fill="#070C09"
   opacity="1.000000"
   stroke="none"
   d=" M163.694244,231.579071   C162.596527,231.818253 161.213303,231.891541 159.419037,231.894165   C160.474899,231.686707 161.941833,231.549942 163.694244,231.579071  z"
   id="path54" />
<path
   fill="#070C09"
   opacity="1.000000"
   stroke="none"
   d=" M171.946625,231.305222   C171.565964,231.598724 171.109512,231.672287 170.315369,231.652130   C170.608719,231.400711 171.239777,231.242996 171.946625,231.305222  z"
   id="path55" />
<path
   fill="#070C09"
   opacity="1.000000"
   stroke="none"
   d=" M162.064362,226.851135   C162.426651,226.527145 162.877960,226.410065 163.676163,226.372025   C163.399826,226.653397 162.776611,226.855728 162.064362,226.851135  z"
   id="path56" />
<path
   fill="#070C09"
   opacity="1.000000"
   stroke="none"
   d=" M169.246155,226.403046   C169.762375,226.177673 170.507004,226.104233 171.622147,226.097626   C171.153290,226.294632 170.313934,226.424805 169.246155,226.403046  z"
   id="path57" />
<path
   fill="#070C09"
   opacity="1.000000"
   stroke="none"
   d=" M32.379135,241.700867   C32.268749,241.311783 32.332512,240.634735 32.621346,239.692184   C32.748707,240.088760 32.650993,240.750839 32.379135,241.700867  z"
   id="path58" />
<path
   fill="#070C09"
   opacity="1.000000"
   stroke="none"
   d=" M46.314980,226.362442   C46.719395,226.233994 47.429024,226.281967 48.422958,226.554260   C48.011574,226.698685 47.315887,226.618774 46.314980,226.362442  z"
   id="path59" />
<path
   fill="#070C09"
   opacity="1.000000"
   stroke="none"
   d=" M54.108757,227.282837   C54.173569,227.153397 54.341049,227.121170 54.746807,227.182083   C54.985081,227.275238 54.613327,227.456238 54.613327,227.456238   C54.613327,227.456238 54.211430,227.380020 54.108757,227.282837  z"
   id="path60" />
<path
   fill="#070C09"
   opacity="1.000000"
   stroke="none"
   d=" M35.713326,254.458603   C35.531494,254.404633 35.308846,254.036499 35.112534,253.337662   C35.316757,253.386108 35.494633,253.765289 35.713326,254.458603  z"
   id="path61" />
<path
   fill="#070C09"
   opacity="1.000000"
   stroke="none"
   d=" M59.890663,273.745514   C59.828011,273.875671 59.660702,273.909058 59.251549,273.858826   C59.243622,273.559814 59.502392,273.517700 59.890663,273.745514  z"
   id="path62" />
<path
   fill="#070C09"
   opacity="1.000000"
   stroke="none"
   d=" M43.772823,270.755676   C43.610279,270.842987 43.224442,270.751038 42.664352,270.407959   C42.843246,270.296692 43.196384,270.436554 43.772823,270.755676  z"
   id="path63" />
<path
   fill="#070C09"
   opacity="1.000000"
   stroke="none"
   d=" M41.842484,269.691376   C41.699379,269.741272 41.407227,269.616699 41.019051,269.260529   C41.215504,269.135315 41.472305,269.297974 41.842484,269.691376  z"
   id="path64" />
<path
   fill="#070C09"
   opacity="1.000000"
   stroke="none"
   d=" M36.796112,259.373901   C36.625732,259.324921 36.414589,258.980530 36.223167,258.325134   C36.413708,258.368896 36.584530,258.723663 36.796112,259.373901  z"
   id="path65" />
<path
   fill="#010201"
   opacity="1.000000"
   stroke="none"
   d=" M396.523010,207.579437   C379.753571,208.421097 363.457489,209.519485 347.146301,209.834244   C341.994507,209.933655 336.703857,208.262817 331.674652,206.745956   C329.518951,206.095749 327.868591,203.770081 324.995972,201.379639   C336.233704,185.237579 346.885498,169.196487 358.331635,153.743774   C366.616272,142.559174 378.050751,138.797806 392.229156,140.353027   C416.999603,143.070129 441.085754,148.206451 464.592712,156.394073   C470.042084,158.292130 474.283295,161.081543 477.129791,166.248062   C481.141602,173.529678 485.441864,180.659561 489.832520,187.721497   C491.417877,190.271378 491.080109,192.139618 489.447723,194.465424   C484.249786,201.871323 476.297638,203.245544 468.312225,203.868668   C455.542450,204.865082 442.722809,205.219162 429.924927,205.858383   C418.946289,206.406754 407.968597,206.974136 396.523010,207.579437  z"
   id="path66" />
<path
   fill="#020403"
   opacity="1.000000"
   stroke="none"
   d=" M431.632263,316.644958   C405.647949,318.931030 380.118011,321.155090 354.590668,323.408447   C352.154114,323.623535 349.681030,323.929932 349.330231,320.581055   C349.029663,317.711182 348.968811,315.061646 352.804016,314.002747   C377.748871,307.115112 401.881317,297.266357 427.691345,293.533264   C435.262909,292.438141 442.816711,291.210327 450.402008,290.222717   C459.393158,289.052094 467.895355,291.038666 476.179199,294.465485   C480.078186,296.078369 481.374847,298.343811 480.074982,302.606262   C477.511719,311.011658 476.114624,312.268707 467.354034,313.072968   C455.589996,314.153015 443.842163,315.409973 431.632263,316.644958  z"
   id="path67" />
<path
   fill="#080F0C"
   opacity="1.000000"
   stroke="none"
   d=" M181.605804,261.784485   C189.556870,261.760864 197.059036,261.430511 204.519012,261.850250   C213.319397,262.345428 217.285538,266.586334 218.003220,275.391113   C218.177719,277.531769 218.394485,279.866913 217.756668,281.843048   C214.141525,293.043518 210.694077,304.329834 206.346283,315.251221   C203.295471,322.914764 197.464767,327.972382 188.536896,328.447052   C184.728470,328.649536 180.945480,329.386108 177.159058,329.936005   C164.876251,331.719879 153.788284,329.478638 144.189774,321.004944   C140.471558,317.722443 136.011459,315.291656 132.008652,312.312531   C130.936859,311.514862 130.304291,310.126984 129.470093,309.010071   C129.829346,308.650421 130.188614,308.290802 130.547882,307.931152   C134.183792,310.390167 138.233276,312.411255 141.382507,315.385590   C153.653381,326.974792 167.744797,327.819885 183.592651,325.059662   C194.639618,323.135590 200.930069,317.784271 204.134689,307.709564   C206.952759,298.850128 209.955536,290.036804 212.380325,281.068909   C214.272125,274.072266 210.618256,268.624634 203.555283,266.809448   C202.113113,266.438812 200.603821,266.068085 199.134903,266.102356   C179.835037,266.552460 160.536972,267.079803 141.238083,267.573120   C139.259323,267.623718 137.278152,267.579926 135.298111,267.579926   C135.266846,266.881195 135.235565,266.182465 135.204300,265.483734   C150.515610,264.259033 165.826935,263.034363 181.605804,261.784485  z"
   id="path68" />
<path
   fill="#070C09"
   opacity="1.000000"
   stroke="none"
   d=" M19.797855,296.809174   C20.887899,295.783539 21.977943,294.757935 23.067989,293.732300   C23.350113,294.002899 23.632238,294.273499 23.914362,294.544098   C22.999603,295.499908 22.084845,296.455688 20.702240,297.355194   C20.088881,297.135681 19.943369,296.972412 19.797855,296.809174  z"
   id="path69" />
<path
   fill="#070C09"
   opacity="1.000000"
   stroke="none"
   d=" M18.550558,298.392700   C18.666405,297.730957 18.989773,297.346985 19.555500,296.886108   C19.943369,296.972412 20.088881,297.135681 20.437431,297.556763   C20.323349,298.214172 20.006226,298.613800 19.449335,299.105164   C19.059074,299.021484 18.908577,298.846008 18.550558,298.392700  z"
   id="path70" />
<path
   fill="#010201"
   opacity="1.000000"
   stroke="none"
   d=" M267.450409,309.114197   C280.369110,306.041779 290.890320,309.760254 299.621368,318.820374   C315.752655,335.559631 315.731903,365.323029 299.706787,382.111053   C285.688995,396.796204 264.888611,396.571838 251.189255,381.587830   C236.054520,365.033752 235.671524,336.155823 251.085175,319.847961   C255.367111,315.317627 261.671051,312.698425 267.450409,309.114197  z"
   id="path71" />
<path
   fill="#020302"
   opacity="1.000000"
   stroke="none"
   d=" M507.414368,352.352112   C502.725433,337.788208 502.460938,323.500397 507.134521,309.331665   C508.880219,304.039276 510.904541,297.634918 517.830750,297.804230   C524.339050,297.963379 526.384399,304.067871 528.089600,309.269897   C532.738525,323.452423 532.690674,337.769348 527.920837,351.903625   C526.237610,356.891479 524.203125,362.665192 517.801392,362.875061   C511.505402,363.081451 509.769897,357.358551 507.414368,352.352112  z"
   id="path72" />
</svg>
